<?xml version="1.0" encoding="UTF-8"?>
<!DOCTYPE svg PUBLIC "-//W3C//DTD SVG 1.1//EN" "http://www.w3.org/Graphics/SVG/1.1/DTD/svg11.dtd">
<!-- Creator: CorelDRAW -->
<svg xmlns="http://www.w3.org/2000/svg" xml:space="preserve" width="937px" height="366px" version="1.1" style="shape-rendering:geometricPrecision; text-rendering:geometricPrecision; image-rendering:optimizeQuality; fill-opacity: 1; fill-rule:evenodd; clip-rule:evenodd"
viewBox="0 0 878.28 343.61"
 xmlns:xlink="http://www.w3.org/1999/xlink"
 xmlns:xodm="http://www.corel.com/coreldraw/odm/2003">
 <defs>
  <style type="text/css">
   <![CDATA[
    .fil0 {fill:#2566AF}
   ]]>
  </style>
 </defs>
 <g id="Слой_x0020_1">
  <metadata id="CorelCorpID_0Corel-Layer"/>
  <g id="_1632591578112">
   <g id="svg_1">
    <path id="svg_3" class="fil0" d="M0.23 5.52l0 31.87 94.55 0c9.95,-0.19 16.1,7.75 16.05,17.93l-0.09 176.28c-0.19,9.62 -5.68,17.7 -15.87,17.65l-36.8 0.09 0 -186.51 -57.84 0 -0.23 217.4 116.98 -0.09c28.22,-0.14 49.39,-22.63 49.44,-50.14l0 -174.39c-0.14,-31.83 -22.44,-50 -53.66,-50.05l-112.53 0 0 -0.04zm373.49 242.6l-26.99 0c-10.38,0.05 -18.07,-8.35 -18.07,-17.79l-0.14 -27.93c0.04,-9.53 8.07,-17.79 18.21,-17.89l26.99 0 0 63.61 0 0zm-80.65 -168.24l0.05 40.93c3.71,-1.73 28.82,-9.43 58.07,-9.39 13.42,-0.04 22.72,11.04 22.72,23.15l-0.14 18.26 -54.03 -0.1c-24.98,0.05 -45.12,20.38 -45.07,45.4l0.05 36.76c-0.1,24.36 19.81,45.2 44.92,45.25l108.21 -0.09 0 -154.59c0,-24.41 -20,-45.58 -45.21,-45.58l-89.57 -0.05 0 0.05zm296.83 0.14l-99.05 -0.14c-24.88,0 -45.11,20.98 -45.07,45.53l-0.04 36.48c0,24.79 20.56,45.3 45.06,45.39l54.41 0c24.32,0 44.6,-20.84 44.5,-45.39l0.19 -81.87 0 0zm-103.7 136.28c-24.64,0 -45.02,20.46 -44.97,45.63 -0.05,0.09 -0.05,36.19 -0.05,36.19 0,24.93 20.14,45.49 45.16,45.49l62.86 0c25.02,0 45.02,-20.61 45.02,-45.35 -0.14,0 0.1,-36.24 0,-36.33 0,-25.03 -20.28,-45.64 -44.92,-45.64 -0.1,0.05 -63.1,0 -63.1,0l0 0.01zm54.08 77.22c0,10.56 -7.84,18.31 -18.12,18.26 0,0 -8.92,0.09 -8.92,0.09 -10.18,-0.04 -17.98,-7.74 -17.98,-18.44l0.05 -27.04c-0.05,-10.24 7.79,-18.36 17.98,-18.27 0.04,0 8.92,-0.09 8.92,-0.09 10.23,0.05 18.02,8.03 18.02,18.36l0.05 27.13 0 0zm0 -136.42c0,10.56 -7.84,18.31 -18.12,18.26 0,0 -8.92,0.09 -8.92,0.09 -10.18,-0.04 -17.98,-7.79 -17.98,-18.49l0.05 -27.04c-0.05,-10.19 7.79,-18.31 17.98,-18.22 0.04,-0.04 8.92,-0.14 8.92,-0.14 10.23,0.1 18.02,8.03 18.02,18.41l0.05 27.13 0 0zm166.47 18.26l-45.07 0 0.09 -45.44c-0.04,-10.24 7.84,-18.31 17.98,-18.22 0,-0.04 8.92,-0.14 8.92,-0.14 10.24,0.1 18.03,8.03 18.03,18.41l0.05 45.39zm-54.08 -95.48c-24.18,0 -44.79,20.32 -44.79,45.49l0 109.24c0,24.78 20.28,45.34 44.93,45.34l103.37 0 0 -39.62c-36.01,10.38 -66.94,10.94 -76.76,10.89 -9.71,-0.09 -17.88,-8.21 -17.88,-18.07l0.09 -25.91 99.01 0 0 -81.83c0,-24.92 -20.23,-45.58 -44.88,-45.58l-63.09 0 0 0.05zm-328.33 -19.63c0.39,0.02 0.79,0.03 1.17,0.03 16.47,0 29.81,-13.5 29.81,-30.14 0,-16.64 -13.34,-30.14 -29.81,-30.14 -0.38,0 -0.78,0.01 -1.17,0.02 -15.99,0.64 -28.63,13.94 -28.63,30.12 0,16.18 12.64,29.48 28.63,30.11l0 0zm72.01 0c0.39,0.02 0.79,0.03 1.18,0.03 16.46,0 29.81,-13.5 29.81,-30.14 0,-16.64 -13.35,-30.14 -29.81,-30.14 -0.39,0 -0.79,0.01 -1.18,0.02 -15.99,0.64 -28.63,13.94 -28.63,30.12 0,16.18 12.64,29.48 28.63,30.11l0 0zm-112.48 19.72c-41.4,-0.14 -74.59,4.84 -99.47,22.77l0.14 177.17 54.31 0 0 -140.93c-0.05,-23.38 26.95,-27.75 45.02,-18.31l0 -40.7zm594.41 0c-41.45,-0.14 -74.59,4.84 -99.47,22.77l0.09 177.17 54.31 0 0 -140.93c-0.04,-23.38 27,-27.75 45.07,-18.31l0 -40.7z"/>
   </g>
  </g>
 </g>
</svg>
